<svg xmlns="http://www.w3.org/2000/svg" xmlns:xlink="http://www.w3.org/1999/xlink" xmlns:lucid="lucid" width="707" height="285"><g transform="translate(-579 -52)" lucid:page-tab-id="0_0"><path d="M0 0h1870.87v1322.83H0z" fill="#fff"/><path d="M600 166c0-3.3 2.7-6 6-6h168c3.3 0 6 2.7 6 6v48c0 3.3-2.7 6-6 6H606c-3.3 0-6-2.7-6-6z" stroke="#5e5e5e" stroke-width="3" fill="#fff"/><use xlink:href="#a" transform="matrix(1,0,0,1,605,165) translate(30.7716049382716 30.27777777777778)"/><path d="M1080 166c0-3.3 2.7-6 6-6h168c3.3 0 6 2.7 6 6v48c0 3.3-2.7 6-6 6h-168c-3.3 0-6-2.7-6-6z" stroke="#5e5e5e" stroke-width="3" fill="#fff"/><use xlink:href="#b" transform="matrix(1,0,0,1,1085,165) translate(67.1604938271605 30.27777777777778)"/><path d="M800 63.24c0-3.3 2.7-6 6-6h228c3.3 0 6 2.7 6 6v53.52c0 3.3-2.7 6-6 6H806c-3.3 0-6-2.7-6-6z" stroke="#000" stroke-opacity="0" stroke-width="3" fill="#fff" fill-opacity="0"/><use xlink:href="#c" transform="matrix(1,0,0,1,805,62.23958333333334) translate(1.7708333333333712 25.49131944444444)"/><use xlink:href="#d" transform="matrix(1,0,0,1,805,62.23958333333334) translate(90.40798611111113 25.49131944444444)"/><use xlink:href="#e" transform="matrix(1,0,0,1,805,62.23958333333334) translate(143.22916666666666 25.49131944444444)"/><use xlink:href="#f" transform="matrix(1,0,0,1,805,62.23958333333334) translate(184.05381944444443 25.49131944444444)"/><use xlink:href="#g" transform="matrix(1,0,0,1,805,62.23958333333334) translate(20.46875000000003 43.99826388888888)"/><use xlink:href="#h" transform="matrix(1,0,0,1,805,62.23958333333334) translate(110.10416666666666 43.99826388888888)"/><use xlink:href="#i" transform="matrix(1,0,0,1,805,62.23958333333334) translate(138.49826388888886 43.99826388888888)"/><path d="M860 126c0-3.3 2.7-6 6-6h108c3.3 0 6 2.7 6 6v18c0 3.3-2.7 6-6 6H866c-3.3 0-6-2.7-6-6z" stroke="#000" stroke-opacity="0" stroke-width="3" fill="#fff" fill-opacity="0"/><use xlink:href="#j" transform="matrix(1,0,0,1,865,125) translate(30.75086805555556 16.24131944444444)"/><path d="M690 157.5v-33c0-3.3 2.7-6 6-6h469.64c3.32 0 6 2.7 6 6V140" stroke="#5e5e5e" stroke-width="2" fill="none"/><path d="M691 158.5h-2v-1.03h2z" fill="#5e5e5e"/><path d="M1171.64 155.26L1167 141h9.28z" stroke="#5e5e5e" stroke-width="2" fill="#5e5e5e"/><path d="M1170 222.5v33c0 3.3-2.7 6-6 6H696c-3.3 0-6-2.7-6-6V240" stroke="#5e5e5e" stroke-width="2" fill="none"/><path d="M1171 222.53h-2v-1.03h2z" fill="#5e5e5e"/><path d="M690 224.74l4.64 14.26h-9.28z" stroke="#5e5e5e" stroke-width="2" fill="#5e5e5e"/><path d="M815.43 266c0-3.3 2.7-6 6-6h228c3.32 0 6 2.7 6 6v53.52c0 3.3-2.68 6-6 6h-228c-3.3 0-6-2.7-6-6z" stroke="#000" stroke-opacity="0" stroke-width="3" fill="#fff" fill-opacity="0"/><g><use xlink:href="#k" transform="matrix(1,0,0,1,820.4330708661416,265) translate(3.207465277777814 14.99131944444444)"/><use xlink:href="#d" transform="matrix(1,0,0,1,820.4330708661416,265) translate(68.5373263888889 14.99131944444444)"/><use xlink:href="#l" transform="matrix(1,0,0,1,820.4330708661416,265) translate(121.35850694444444 14.99131944444444)"/><use xlink:href="#m" transform="matrix(1,0,0,1,820.4330708661416,265) translate(192.9210069444444 14.99131944444444)"/><use xlink:href="#n" transform="matrix(1,0,0,1,820.4330708661416,265) translate(21.597222222222243 33.49826388888888)"/><use xlink:href="#o" transform="matrix(1,0,0,1,820.4330708661416,265) translate(102.35243055555554 33.49826388888888)"/><use xlink:href="#p" transform="matrix(1,0,0,1,820.4330708661416,265) translate(162.71701388888886 33.49826388888888)"/><use xlink:href="#q" transform="matrix(1,0,0,1,820.4330708661416,265) translate(184.0798611111111 33.49826388888888)"/><use xlink:href="#r" transform="matrix(1,0,0,1,820.4330708661416,265) translate(21.3324652777778 52.005208333333314)"/><use xlink:href="#h" transform="matrix(1,0,0,1,820.4330708661416,265) translate(109.24045138888889 52.005208333333314)"/><use xlink:href="#i" transform="matrix(1,0,0,1,820.4330708661416,265) translate(137.6345486111111 52.005208333333314)"/></g><defs><path fill="#333" d="M205 0l-28-72H64L36 0H1l101-248h38L239 0h-34zm-38-99l-47-123c-12 45-31 82-46 123h93" id="s"/><path fill="#333" d="M115-194c55 1 70 41 70 98S169 2 115 4C84 4 66-9 55-30l1 105H24l-1-265h31l2 30c10-21 28-34 59-34zm-8 174c40 0 45-34 45-75s-6-73-45-74c-42 0-51 32-51 76 0 43 10 73 51 73" id="t"/><path fill="#333" d="M24 0v-261h32V0H24" id="u"/><path fill="#333" d="M24-231v-30h32v30H24zM24 0v-190h32V0H24" id="v"/><path fill="#333" d="M96-169c-40 0-48 33-48 73s9 75 48 75c24 0 41-14 43-38l32 2c-6 37-31 61-74 61-59 0-76-41-82-99-10-93 101-131 147-64 4 7 5 14 7 22l-32 3c-4-21-16-35-41-35" id="w"/><path fill="#333" d="M141-36C126-15 110 5 73 4 37 3 15-17 15-53c-1-64 63-63 125-63 3-35-9-54-41-54-24 1-41 7-42 31l-33-3c5-37 33-52 76-52 45 0 72 20 72 64v82c-1 20 7 32 28 27v20c-31 9-61-2-59-35zM48-53c0 20 12 33 32 33 41-3 63-29 60-74-43 2-92-5-92 41" id="x"/><path fill="#333" d="M59-47c-2 24 18 29 38 22v24C64 9 27 4 27-40v-127H5v-23h24l9-43h21v43h35v23H59v120" id="y"/><path fill="#333" d="M100-194c62-1 85 37 85 99 1 63-27 99-86 99S16-35 15-95c0-66 28-99 85-99zM99-20c44 1 53-31 53-75 0-43-8-75-51-75s-53 32-53 75 10 74 51 75" id="z"/><path fill="#333" d="M117-194c89-4 53 116 60 194h-32v-121c0-31-8-49-39-48C34-167 62-67 57 0H25l-1-190h30c1 10-1 24 2 32 11-22 29-35 61-36" id="A"/><g id="a"><use transform="matrix(0.06172839506172839,0,0,0.06172839506172839,0,0)" xlink:href="#s"/><use transform="matrix(0.06172839506172839,0,0,0.06172839506172839,14.814814814814813,0)" xlink:href="#t"/><use transform="matrix(0.06172839506172839,0,0,0.06172839506172839,27.160493827160494,0)" xlink:href="#t"/><use transform="matrix(0.06172839506172839,0,0,0.06172839506172839,39.50617283950617,0)" xlink:href="#u"/><use transform="matrix(0.06172839506172839,0,0,0.06172839506172839,44.382716049382715,0)" xlink:href="#v"/><use transform="matrix(0.06172839506172839,0,0,0.06172839506172839,49.25925925925926,0)" xlink:href="#w"/><use transform="matrix(0.06172839506172839,0,0,0.06172839506172839,60.37037037037037,0)" xlink:href="#x"/><use transform="matrix(0.06172839506172839,0,0,0.06172839506172839,72.71604938271605,0)" xlink:href="#y"/><use transform="matrix(0.06172839506172839,0,0,0.06172839506172839,78.88888888888889,0)" xlink:href="#v"/><use transform="matrix(0.06172839506172839,0,0,0.06172839506172839,83.76543209876543,0)" xlink:href="#z"/><use transform="matrix(0.06172839506172839,0,0,0.06172839506172839,96.11111111111111,0)" xlink:href="#A"/></g><path fill="#333" d="M212-179c-10-28-35-45-73-45-59 0-87 40-87 99 0 60 29 101 89 101 43 0 62-24 78-52l27 14C228-24 195 4 139 4 59 4 22-46 18-125c-6-104 99-153 187-111 19 9 31 26 39 46" id="B"/><path fill="#333" d="M114-163C36-179 61-72 57 0H25l-1-190h30c1 12-1 29 2 39 6-27 23-49 58-41v29" id="C"/><g id="b"><use transform="matrix(0.06172839506172839,0,0,0.06172839506172839,0,0)" xlink:href="#B"/><use transform="matrix(0.06172839506172839,0,0,0.06172839506172839,15.987654320987653,0)" xlink:href="#x"/><use transform="matrix(0.06172839506172839,0,0,0.06172839506172839,28.333333333333332,0)" xlink:href="#C"/></g><path fill="#333" d="M695-649l-152-510-156 510h308zM888 0L732-517H348L192 0H57l406-1355h160L1029 0H888" id="D"/><path fill="#333" d="M209-478c0 191 154 370 342 370 187 0 348-181 348-370S737-849 551-849c-188 0-342 180-342 371zm820 0c0 258-224 500-478 500-147 0-262-65-347-196v573H74V-957h130v174c85-131 200-196 347-196 256 0 478 244 478 501" id="E"/><path fill="#333" d="M86-1355h132V0H86v-1355" id="F"/><path fill="#333" d="M240-1205c-40 0-79-36-79-76s39-76 79-76c41 0 78 35 78 76s-37 76-78 76zM47-957h257V0H174v-827H47v-130" id="G"/><path fill="#333" d="M51-478c0-256 221-509 478-501 201 6 353 126 426 274H803c-71-96-163-144-274-144-189 0-348 180-348 372 0 191 160 369 348 369 100 0 189-44 266-132h155C852-65 712 22 529 22 275 22 51-223 51-478" id="H"/><path fill="#333" d="M497-108c108 0 303-51 303-143v-220c-2 23-338 19-365 38-104 20-200 82-200 182 0 95 87 143 262 143zm28-871c161 0 405 100 405 248v579c0 27 16 41 48 44-1 21-3 64-5 129-72-4-122-33-151-87-82 59-188 88-318 88C233 22 97-70 97-253c0-145 124-253 248-288 70-20 368-9 427-58 17-9 27-25 29-46-1 7-1-13-1-60 0-84-168-147-260-147-166 0-269 58-309 174l-126-27c31-178 203-274 420-274" id="I"/><path fill="#333" d="M406 0C279 4 176-105 176-232v-595H26v-130c75 0 120-17 137-51 9-17 13-69 13-155h130v206h241v130H306v595c0 70 49 105 146 105 18 0 78-3 95-3V0H406" id="J"/><path fill="#333" d="M881-477c0-189-160-372-351-372-189 0-348 181-348 372s160 369 348 369 351-180 351-369zm-829-1c0-256 220-501 478-501 257 0 481 246 481 502S785 22 530 22C276 22 52-223 52-478" id="K"/><path fill="#333" d="M545-849c-196 0-341 171-341 371V0H74v-957h130v174c77-131 190-196 341-196 285 0 449 200 449 493V0H862v-478c2-219-106-371-317-371" id="L"/><g id="c"><use transform="matrix(0.008680555555555552,0,0,0.008680555555555552,0,0)" xlink:href="#D"/><use transform="matrix(0.008680555555555552,0,0,0.008680555555555552,9.982638888888886,0)" xlink:href="#E"/><use transform="matrix(0.008680555555555552,0,0,0.008680555555555552,19.644097222222214,0)" xlink:href="#E"/><use transform="matrix(0.008680555555555552,0,0,0.008680555555555552,29.305555555555543,0)" xlink:href="#F"/><use transform="matrix(0.008680555555555552,0,0,0.008680555555555552,32.387152777777764,0)" xlink:href="#G"/><use transform="matrix(0.008680555555555552,0,0,0.008680555555555552,35.859374999999986,0)" xlink:href="#H"/><use transform="matrix(0.008680555555555552,0,0,0.008680555555555552,45.26909722222221,0)" xlink:href="#I"/><use transform="matrix(0.008680555555555552,0,0,0.008680555555555552,54.105902777777764,0)" xlink:href="#J"/><use transform="matrix(0.008680555555555552,0,0,0.008680555555555552,59.418402777777764,0)" xlink:href="#G"/><use transform="matrix(0.008680555555555552,0,0,0.008680555555555552,62.890624999999986,0)" xlink:href="#K"/><use transform="matrix(0.008680555555555552,0,0,0.008680555555555552,72.65624999999999,0)" xlink:href="#L"/></g><path fill="#333" d="M898-260C898-89 674 20 489 20 280 20 75-78 57-254l126-27c2 114 176 171 313 171 113 0 265-50 265-150 0-60-40-102-120-127-21-6-104-22-252-42-166-23-242-71-302-158-134-339 365-481 654-327 94 50 148 120 161 213l-126 27c-25-116-134-174-329-174-116 0-251 47-251 149 0 73 54 127 164 147 83 15 168 18 253 29 83 11 158 46 225 101 40 33 60 87 60 162" id="M"/><path fill="#333" d="M52-478c0-256 228-501 485-501 264 0 489 248 480 516H180c0 180 174 355 357 355 148 0 301-110 347-219l130 23C955-140 749 17 537 22 280 28 52-222 52-478zm815-115c-38-129-172-257-330-256-158 0-295 130-340 256h670" id="N"/><path fill="#333" d="M-2-478c0-256 249-501 505-501 147 0 261 65 343 196v-572h132V0H846v-174C761-43 645 22 498 22 243 22-2-223-2-478zm843 0c0-191-151-371-338-371S128-665 128-478s183 370 370 370c188 0 343-180 343-370" id="O"/><g id="d"><use transform="matrix(0.008680555555555552,0,0,0.008680555555555552,0,0)" xlink:href="#M"/><use transform="matrix(0.008680555555555552,0,0,0.008680555555555552,8.70659722222222,0)" xlink:href="#N"/><use transform="matrix(0.008680555555555552,0,0,0.008680555555555552,18.472222222222214,0)" xlink:href="#L"/><use transform="matrix(0.008680555555555552,0,0,0.008680555555555552,28.168402777777764,0)" xlink:href="#O"/><use transform="matrix(0.008680555555555552,0,0,0.008680555555555552,37.82986111111109,0)" xlink:href="#M"/></g><path fill="#333" d="M922-478c0-187-188-371-375-371S209-669 209-478c0 190 155 370 343 370 187 0 370-183 370-370zm130 0c0 255-245 500-500 500-147 0-263-65-348-196V0H72v-1355h132v572c82-131 196-196 343-196 256 0 505 245 505 501" id="P"/><path fill="#333" d="M253 269c88 1 142-24 163-75L519-65 33-957h148l400 735 292-735h140L555 194c-58 142-154 210-302 205V269" id="Q"/><g id="e"><use transform="matrix(0.008680555555555552,0,0,0.008680555555555552,0,0)" xlink:href="#P"/><use transform="matrix(0.008680555555555552,0,0,0.008680555555555552,9.878472222222218,0)" xlink:href="#Q"/><use transform="matrix(0.008680555555555552,0,0,0.008680555555555552,19.46180555555555,0)" xlink:href="#J"/><use transform="matrix(0.008680555555555552,0,0,0.008680555555555552,24.77430555555555,0)" xlink:href="#N"/></g><path fill="#333" d="M550-827c-191 0-346 159-346 349V0H72v-957h132v174c85-116 198-174 339-174h204v174c-69-29-134-44-197-44" id="R"/><path fill="#333" d="M177-478c0 192 146 370 333 370s324-179 324-370c0-193-136-371-324-371-187 0-333 180-333 371zm332 742c191 3 334-157 330-347v-91C756-43 647 22 510 22 246 22 47-209 47-478c0-259 208-501 463-501 140 0 250 67 329 201v-179h130v888c6 260-201 463-461 463C272 394 95 221 61 14L188-7c30 151 149 268 321 271" id="S"/><g id="f"><use transform="matrix(0.008680555555555552,0,0,0.008680555555555552,0,0)" xlink:href="#M"/><use transform="matrix(0.008680555555555552,0,0,0.008680555555555552,8.70659722222222,0)" xlink:href="#J"/><use transform="matrix(0.008680555555555552,0,0,0.008680555555555552,14.019097222222218,0)" xlink:href="#R"/><use transform="matrix(0.008680555555555552,0,0,0.008680555555555552,21.458333333333325,0)" xlink:href="#G"/><use transform="matrix(0.008680555555555552,0,0,0.008680555555555552,24.930555555555546,0)" xlink:href="#L"/><use transform="matrix(0.008680555555555552,0,0,0.008680555555555552,34.6267361111111,0)" xlink:href="#S"/></g><path fill="#333" d="M455-849c-173 0-251 180-251 371V0H74v-957h130v106c60-85 144-128 251-128 146 0 245 69 296 208 37-139 135-208 295-208 233 0 349 167 349 501V0h-130v-478c0-247-73-371-219-371-169 0-241 180-241 371V0H675l-1-478c0-247-73-371-219-371" id="T"/><g id="g"><use transform="matrix(0.008680555555555552,0,0,0.008680555555555552,0,0)" xlink:href="#H"/><use transform="matrix(0.008680555555555552,0,0,0.008680555555555552,9.40972222222222,0)" xlink:href="#K"/><use transform="matrix(0.008680555555555552,0,0,0.008680555555555552,19.175347222222214,0)" xlink:href="#T"/><use transform="matrix(0.008680555555555552,0,0,0.008680555555555552,32.60416666666666,0)" xlink:href="#T"/><use transform="matrix(0.008680555555555552,0,0,0.008680555555555552,46.0329861111111,0)" xlink:href="#I"/><use transform="matrix(0.008680555555555552,0,0,0.008680555555555552,55.28645833333332,0)" xlink:href="#L"/><use transform="matrix(0.008680555555555552,0,0,0.008680555555555552,64.98263888888887,0)" xlink:href="#O"/><use transform="matrix(0.008680555555555552,0,0,0.008680555555555552,74.6440972222222,0)" xlink:href="#M"/></g><path fill="#333" d="M178-957l334 813 331-813h142L595 0H424L33-957h145" id="U"/><g id="h"><use transform="matrix(0.008680555555555552,0,0,0.008680555555555552,0,0)" xlink:href="#U"/><use transform="matrix(0.008680555555555552,0,0,0.008680555555555552,9.383680555555552,0)" xlink:href="#G"/><use transform="matrix(0.008680555555555552,0,0,0.008680555555555552,12.855902777777773,0)" xlink:href="#I"/></g><path fill="#333" d="M483-108c191 0 291-169 291-370v-479h130V0H774v-137C701-31 604 22 483 22 219 22 67-183 67-456v-501h130v501c-4 182 112 348 286 348" id="V"/><path fill="#333" d="M543-849c-184 0-339 185-339 371V0H74v-1355h130v572c84-131 197-196 339-196 250 0 421 235 421 493V0H834v-478c4-195-107-371-291-371" id="W"/><g id="i"><use transform="matrix(0.008680555555555552,0,0,0.008680555555555552,0,0)" xlink:href="#P"/><use transform="matrix(0.008680555555555552,0,0,0.008680555555555552,9.878472222222218,0)" xlink:href="#F"/><use transform="matrix(0.008680555555555552,0,0,0.008680555555555552,12.96006944444444,0)" xlink:href="#V"/><use transform="matrix(0.008680555555555552,0,0,0.008680555555555552,21.987847222222214,0)" xlink:href="#N"/><use transform="matrix(0.008680555555555552,0,0,0.008680555555555552,31.75347222222221,0)" xlink:href="#J"/><use transform="matrix(0.008680555555555552,0,0,0.008680555555555552,37.06597222222221,0)" xlink:href="#K"/><use transform="matrix(0.008680555555555552,0,0,0.008680555555555552,46.8315972222222,0)" xlink:href="#K"/><use transform="matrix(0.008680555555555552,0,0,0.008680555555555552,56.5972222222222,0)" xlink:href="#J"/><use transform="matrix(0.008680555555555552,0,0,0.008680555555555552,61.9097222222222,0)" xlink:href="#W"/></g><path fill="#333" d="M541-898H411v-457h130v457zm-306 0H105v-457h130v457" id="X"/><path fill="#333" d="M216-1355l315 543 320-543h152L612-684 1006 0H855L531-551 213 0H57l399-684-391-671h151" id="Y"/><path fill="#333" d="M428-681L26-1355h152l315 543 318-543h153L561-681V0H428v-681" id="Z"/><g id="j"><use transform="matrix(0.008680555555555552,0,0,0.008680555555555552,0,0)" xlink:href="#X"/><use transform="matrix(0.008680555555555552,0,0,0.008680555555555552,5.703124999999998,0)" xlink:href="#Y"/><use transform="matrix(0.008680555555555552,0,0,0.008680555555555552,15.503472222222216,0)" xlink:href="#Z"/><use transform="matrix(0.008680555555555552,0,0,0.008680555555555552,24.600694444444436,0)" xlink:href="#Z"/><use transform="matrix(0.008680555555555552,0,0,0.008680555555555552,33.69791666666666,0)" xlink:href="#Z"/><use transform="matrix(0.008680555555555552,0,0,0.008680555555555552,42.79513888888888,0)" xlink:href="#X"/></g><g id="k"><use transform="matrix(0.008680555555555552,0,0,0.008680555555555552,0,0)" xlink:href="#D"/><use transform="matrix(0.008680555555555552,0,0,0.008680555555555552,9.982638888888886,0)" xlink:href="#R"/><use transform="matrix(0.008680555555555552,0,0,0.008680555555555552,17.421874999999993,0)" xlink:href="#O"/><use transform="matrix(0.008680555555555552,0,0,0.008680555555555552,27.08333333333332,0)" xlink:href="#V"/><use transform="matrix(0.008680555555555552,0,0,0.008680555555555552,36.1111111111111,0)" xlink:href="#G"/><use transform="matrix(0.008680555555555552,0,0,0.008680555555555552,39.58333333333332,0)" xlink:href="#L"/><use transform="matrix(0.008680555555555552,0,0,0.008680555555555552,49.27951388888887,0)" xlink:href="#K"/></g><g id="l"><use transform="matrix(0.008680555555555552,0,0,0.008680555555555552,0,0)" xlink:href="#O"/><use transform="matrix(0.008680555555555552,0,0,0.008680555555555552,9.66145833333333,0)" xlink:href="#G"/><use transform="matrix(0.008680555555555552,0,0,0.008680555555555552,13.13368055555555,0)" xlink:href="#M"/><use transform="matrix(0.008680555555555552,0,0,0.008680555555555552,21.84027777777777,0)" xlink:href="#J"/><use transform="matrix(0.008680555555555552,0,0,0.008680555555555552,27.15277777777777,0)" xlink:href="#I"/><use transform="matrix(0.008680555555555552,0,0,0.008680555555555552,36.40624999999999,0)" xlink:href="#L"/><use transform="matrix(0.008680555555555552,0,0,0.008680555555555552,46.102430555555536,0)" xlink:href="#H"/><use transform="matrix(0.008680555555555552,0,0,0.008680555555555552,55.512152777777764,0)" xlink:href="#N"/></g><path fill="#333" d="M431-1222c-103-2-191 65-188 167v98h188v130H243V0H111v-827H33v-130h78c-7-146 8-241 94-317 61-53 135-81 226-81v133" id="aa"/><g id="m"><use transform="matrix(0.008680555555555552,0,0,0.008680555555555552,0,0)" xlink:href="#aa"/><use transform="matrix(0.008680555555555552,0,0,0.008680555555555552,4.210069444444443,0)" xlink:href="#R"/><use transform="matrix(0.008680555555555552,0,0,0.008680555555555552,10.67708333333333,0)" xlink:href="#K"/><use transform="matrix(0.008680555555555552,0,0,0.008680555555555552,20.442708333333325,0)" xlink:href="#T"/></g><g id="n"><use transform="matrix(0.008680555555555552,0,0,0.008680555555555552,0,0)" xlink:href="#V"/><use transform="matrix(0.008680555555555552,0,0,0.008680555555555552,9.027777777777775,0)" xlink:href="#F"/><use transform="matrix(0.008680555555555552,0,0,0.008680555555555552,12.109374999999996,0)" xlink:href="#J"/><use transform="matrix(0.008680555555555552,0,0,0.008680555555555552,17.421874999999993,0)" xlink:href="#R"/><use transform="matrix(0.008680555555555552,0,0,0.008680555555555552,24.166666666666657,0)" xlink:href="#I"/><use transform="matrix(0.008680555555555552,0,0,0.008680555555555552,33.42013888888888,0)" xlink:href="#M"/><use transform="matrix(0.008680555555555552,0,0,0.008680555555555552,42.12673611111109,0)" xlink:href="#K"/><use transform="matrix(0.008680555555555552,0,0,0.008680555555555552,51.8923611111111,0)" xlink:href="#L"/><use transform="matrix(0.008680555555555552,0,0,0.008680555555555552,61.58854166666665,0)" xlink:href="#G"/><use transform="matrix(0.008680555555555552,0,0,0.008680555555555552,65.06076388888887,0)" xlink:href="#H"/></g><g id="o"><use transform="matrix(0.008680555555555552,0,0,0.008680555555555552,0,0)" xlink:href="#M"/><use transform="matrix(0.008680555555555552,0,0,0.008680555555555552,8.70659722222222,0)" xlink:href="#N"/><use transform="matrix(0.008680555555555552,0,0,0.008680555555555552,18.472222222222214,0)" xlink:href="#L"/><use transform="matrix(0.008680555555555552,0,0,0.008680555555555552,28.168402777777764,0)" xlink:href="#M"/><use transform="matrix(0.008680555555555552,0,0,0.008680555555555552,36.874999999999986,0)" xlink:href="#K"/><use transform="matrix(0.008680555555555552,0,0,0.008680555555555552,46.640624999999986,0)" xlink:href="#R"/></g><g id="p"><use transform="matrix(0.008680555555555552,0,0,0.008680555555555552,0,0)" xlink:href="#J"/><use transform="matrix(0.008680555555555552,0,0,0.008680555555555552,5.312499999999998,0)" xlink:href="#K"/></g><g id="q"><use transform="matrix(0.008680555555555552,0,0,0.008680555555555552,0,0)" xlink:href="#J"/><use transform="matrix(0.008680555555555552,0,0,0.008680555555555552,5.312499999999998,0)" xlink:href="#W"/><use transform="matrix(0.008680555555555552,0,0,0.008680555555555552,14.55729166666666,0)" xlink:href="#N"/></g><g id="r"><use transform="matrix(0.008680555555555552,0,0,0.008680555555555552,0,0)" xlink:href="#I"/><use transform="matrix(0.008680555555555552,0,0,0.008680555555555552,9.25347222222222,0)" xlink:href="#E"/><use transform="matrix(0.008680555555555552,0,0,0.008680555555555552,18.91493055555555,0)" xlink:href="#E"/><use transform="matrix(0.008680555555555552,0,0,0.008680555555555552,28.57638888888888,0)" xlink:href="#F"/><use transform="matrix(0.008680555555555552,0,0,0.008680555555555552,31.6579861111111,0)" xlink:href="#G"/><use transform="matrix(0.008680555555555552,0,0,0.008680555555555552,35.13020833333332,0)" xlink:href="#H"/><use transform="matrix(0.008680555555555552,0,0,0.008680555555555552,44.53993055555554,0)" xlink:href="#I"/><use transform="matrix(0.008680555555555552,0,0,0.008680555555555552,53.3767361111111,0)" xlink:href="#J"/><use transform="matrix(0.008680555555555552,0,0,0.008680555555555552,58.6892361111111,0)" xlink:href="#G"/><use transform="matrix(0.008680555555555552,0,0,0.008680555555555552,62.16145833333332,0)" xlink:href="#K"/><use transform="matrix(0.008680555555555552,0,0,0.008680555555555552,71.92708333333331,0)" xlink:href="#L"/></g></defs></g></svg>